<svg width="32" height="32" viewBox="0 0 32 32" fill="none" xmlns="http://www.w3.org/2000/svg">
    <!-- Tooth Outline -->
    <path d="M23 4H9C6.8 4 5 5.8 5 8V12C5 14.8 7.2 17 10 17.8V24C10 26.2 11.8 28 14 28C16.2 28 18 26.2 18 24V22H14V24C14 25.1 14.9 26 16 26C17.1 26 18 25.1 18 24V20H22V24C22 25.1 22.9 26 24 26C25.1 26 26 25.1 26 24V17.8C28.8 17 31 14.8 31 12V8C31 5.8 29.2 4 27 4H23Z" 
          stroke="#1d1d1f" stroke-width="2.5" stroke-linecap="round" stroke-linejoin="round" fill="white"/>
    
    <!-- Eyes -->
    <circle cx="12" cy="12" r="1.5" fill="#1d1d1f"/>
    <circle cx="20" cy="12" r="1.5" fill="#1d1d1f"/>

    <!-- Smile -->
    <path d="M11 16 Q16 20 21 16" stroke="#1d1d1f" stroke-width="2" stroke-linecap="round"/>
</svg>
